# xmcd
#
# Track frame offsets: 
#        150
#        14497
#        29447
#        44497
#        55715
#        69732
#        83515
#        98947
#        114147
#        131337
#        146835
#        157475
#        172572
#        184110
#
# Disc length: 2586 seconds
#
# Revision: 7
# Processed by: cddbd v1.5.2PL0 Copyright (c) Steve Scherf et al.
# Submitted via: ExactAudioCopy v1.0b3
#
DISCID=b80a180e
DTITLE=Ricky Van Shelton - Greatest Hits Plus
DYEAR=1992
DGENRE=Country
TTITLE0=Just As I Am
TTITLE1=Wild Man
TTITLE2=Somebody Lied
TTITLE3=I've Cried My Last Tear For You
TTITLE4=I'll Leave This World Loving You
TTITLE5=Statue Of A Fool
TTITLE6=I Am A Simple Man
TTITLE7=Life Turned Her That Way
TTITLE8=Keep It Between The Lines
TTITLE9=Rockin' Years (With Dolly Parton)
TTITLE10=From A Jack To A King
TTITLE11=Living Proof
TTITLE12=Don't We All Have The Right
TTITLE13=Wear My Ring Around Your Neck (Bonus Cut)
EXTD=
EXTT0=
EXTT1=
EXTT2=
EXTT3=
EXTT4=
EXTT5=
EXTT6=
EXTT7=
EXTT8=
EXTT9=
EXTT10=
EXTT11=
EXTT12=
EXTT13=
PLAYORDER=
